<?xml version="1.0" encoding="UTF-8"?>
<svg width="752pt" height="752pt" version="1.1" viewBox="0 0 752 752" xmlns="http://www.w3.org/2000/svg">
 <g fill="#c62828">
  <path d="m283.5 336.78 237.53 264.91c11.098 12.578 30.34 12.578 42.18 1.4805l39.957-39.957c11.84-11.84 11.098-31.078-1.4805-42.18l-264.91-237.53c16.281-37.738 8.8789-82.875-21.461-113.21-26.641-26.641-63.637-35.52-97.676-26.641-4.4375 0.74219-5.918 5.9219-2.957 8.8828l61.418 61.418-62.156 62.156-61.418-61.418c-2.9609-2.9609-8.1406-1.4805-8.8789 2.9609-8.8789 34.039 0 71.039 26.641 97.676 30.336 30.34 76.215 37.738 113.21 21.457z"/>
  <path d="m304.22 396.72 65.117 72.516-128.01 128.02c-14.801 14.801-35.52 17.758-53.277 10.359-5.918-2.2188-11.098-5.918-15.539-10.359-4.4414-4.4414-8.1406-9.6211-10.359-15.539-7.3984-17.758-4.4414-39.219 10.359-53.277z"/>
  <path d="m594.29 209.51-57.719 73.258-22.199 6.6602-4.4375-3.6992-63.641 63.637-27.379-24.418 65.117-65.121-4.4375-4.4375 7.3984-22.199 72.52-57.719z"/>
 </g>
</svg>
